# xmcd
#
# Track frame offsets:
#	150
#	2900
#	12522
#	23975
#	40330
#	54545
#	57562
#	88035
#	101705
#	112850
#	142985
#	153922
#	167905
#	197372
#
# Disc length: 2871 seconds
#
# Revision: 1
# Processed by: cddbd v1.5.2PL0 Copyright (c) Steve Scherf et al.
# Submitted via: audiograbber 1.82.01
#
DISCID=b30b350e
DTITLE=ENGELBERT - Live in Japan
DYEAR=1900
DGENRE=Pop
TTITLE0=Intro
TTITLE1=There's A Kind Of Hush
TTITLE2=All I Ever Need Is You
TTITLE3=Li Mondo
TTITLE4=A Man Without Love
TTITLE5=The Stripper
TTITLE6=Impressions
TTITLE7=I'll Be Your Baby Tonight
TTITLE8=Another Time Anither Place
TTITLE9=Medley...
TTITLE10=Intro To Orchestra - I Can Help
TTITLE11=Without You
TTITLE12=Love Is All
TTITLE13=Release Me
EXTD=
EXTT0=
EXTT1=
EXTT2=
EXTT3=
EXTT4=
EXTT5=
EXTT6=
EXTT7=
EXTT8=
EXTT9=
EXTT10=
EXTT11=
EXTT12=
EXTT13=
PLAYORDER=
